<?xml version="1.0" encoding="UTF-8" standalone="no"?>
<!DOCTYPE svg PUBLIC "-//W3C//DTD SVG 1.1//EN"
 "http://www.w3.org/Graphics/SVG/1.1/DTD/svg11.dtd">
<!-- Generated by graphviz version 2.28.0 (20110915.1557)
 -->
<!-- Title: KindnessCard Pages: 1 -->
<svg width="586pt" height="446pt"
 viewBox="0.00 0.00 585.60 445.60" xmlns="http://www.w3.org/2000/svg" xmlns:xlink="http://www.w3.org/1999/xlink">
<g id="graph1" class="graph" transform="scale(1 1) rotate(0) translate(28.8 416.8)">
<title>KindnessCard</title>
<polygon fill="white" stroke="white" points="-28.8,29.8 -28.8,-416.8 557.8,-416.8 557.8,29.8 -28.8,29.8"/>
<text text-anchor="middle" x="264" y="-373.6" font-family="Arial Bold" font-size="13.00">Kindness Cards</text>
<!-- m_Account -->
<g id="node1" class="node"><title>m_Account</title>
<polyline fill="none" stroke="black" points="12.5,-78.5 133.5,-78.5 "/>
<path fill="none" stroke="black" d="M133.5,-78.5C139.5,-78.5 145.5,-84.5 145.5,-90.5"/>
<polyline fill="none" stroke="black" points="145.5,-90.5 145.5,-181.5 "/>
<path fill="none" stroke="black" d="M145.5,-181.5C145.5,-187.5 139.5,-193.5 133.5,-193.5"/>
<polyline fill="none" stroke="black" points="133.5,-193.5 12.5,-193.5 "/>
<path fill="none" stroke="black" d="M12.5,-193.5C6.5,-193.5 0.5,-187.5 0.5,-181.5"/>
<polyline fill="none" stroke="black" points="0.5,-181.5 0.5,-90.5 "/>
<path fill="none" stroke="black" d="M0.5,-90.5C0.5,-84.5 6.5,-78.5 12.5,-78.5"/>
<text text-anchor="start" x="53" y="-180.7" font-family="Arial Bold" font-size="11.00">Account</text>
<polyline fill="none" stroke="black" points="0.5,-173.5 145.5,-173.5 "/>
<text text-anchor="start" x="8" y="-159.5" font-family="Arial" font-size="10.00">city </text>
<text text-anchor="start" x="26" y="-159.5" font-family="Arial Italic" font-size="10.00" fill="#999999">string ∗</text>
<text text-anchor="start" x="8" y="-147" font-family="Arial" font-size="10.00">logo </text>
<text text-anchor="start" x="30" y="-147" font-family="Arial Italic" font-size="10.00" fill="#999999">string</text>
<text text-anchor="start" x="8" y="-135" font-family="Arial" font-size="10.00">name </text>
<text text-anchor="start" x="36" y="-135" font-family="Arial Italic" font-size="10.00" fill="#999999">string ∗</text>
<text text-anchor="start" x="8" y="-123" font-family="Arial" font-size="10.00">phone </text>
<text text-anchor="start" x="39" y="-123" font-family="Arial Italic" font-size="10.00" fill="#999999">string</text>
<text text-anchor="start" x="8" y="-111" font-family="Arial" font-size="10.00">state </text>
<text text-anchor="start" x="33" y="-111" font-family="Arial Italic" font-size="10.00" fill="#999999">string ∗</text>
<text text-anchor="start" x="8" y="-99" font-family="Arial" font-size="10.00">street </text>
<text text-anchor="start" x="36" y="-99" font-family="Arial Italic" font-size="10.00" fill="#999999">string ∗</text>
<text text-anchor="start" x="8" y="-87" font-family="Arial" font-size="10.00">zip </text>
<text text-anchor="start" x="24" y="-87" font-family="Arial Italic" font-size="10.00" fill="#999999">string ∗</text>
</g>
<!-- m_Card -->
<g id="node2" class="node"><title>m_Card</title>
<polyline fill="none" stroke="black" points="203.5,-301.5 324.5,-301.5 "/>
<path fill="none" stroke="black" d="M324.5,-301.5C330.5,-301.5 336.5,-307.5 336.5,-313.5"/>
<polyline fill="none" stroke="black" points="336.5,-313.5 336.5,-332.5 "/>
<path fill="none" stroke="black" d="M336.5,-332.5C336.5,-338.5 330.5,-344.5 324.5,-344.5"/>
<polyline fill="none" stroke="black" points="324.5,-344.5 203.5,-344.5 "/>
<path fill="none" stroke="black" d="M203.5,-344.5C197.5,-344.5 191.5,-338.5 191.5,-332.5"/>
<polyline fill="none" stroke="black" points="191.5,-332.5 191.5,-313.5 "/>
<path fill="none" stroke="black" d="M191.5,-313.5C191.5,-307.5 197.5,-301.5 203.5,-301.5"/>
<text text-anchor="start" x="252" y="-331.7" font-family="Arial Bold" font-size="11.00">Card</text>
<polyline fill="none" stroke="black" points="191.5,-324.5 336.5,-324.5 "/>
<text text-anchor="start" x="199" y="-310.5" font-family="Arial" font-size="10.00">serial_number </text>
<text text-anchor="start" x="266" y="-310.5" font-family="Arial Italic" font-size="10.00" fill="#999999">string ∗</text>
</g>
<!-- m_Account&#45;&gt;m_Card -->
<g id="edge4" class="edge"><title>m_Account&#45;&gt;m_Card</title>
<path fill="none" stroke="black" d="M105.143,-193.784C124.084,-224.649 150.652,-261.438 182,-287 186.383,-290.574 191.177,-293.864 196.173,-296.877"/>
<polygon fill="black" stroke="black" points="194.775,-299.705 204.161,-301.386 197.872,-294.219 194.775,-299.705"/>
</g>
<!-- m_User -->
<g id="node4" class="node"><title>m_User</title>
<polyline fill="none" stroke="black" points="194.5,-0.5 333.5,-0.5 "/>
<path fill="none" stroke="black" d="M333.5,-0.5C339.5,-0.5 345.5,-6.5 345.5,-12.5"/>
<polyline fill="none" stroke="black" points="345.5,-12.5 345.5,-259.5 "/>
<path fill="none" stroke="black" d="M345.5,-259.5C345.5,-265.5 339.5,-271.5 333.5,-271.5"/>
<polyline fill="none" stroke="black" points="333.5,-271.5 194.5,-271.5 "/>
<path fill="none" stroke="black" d="M194.5,-271.5C188.5,-271.5 182.5,-265.5 182.5,-259.5"/>
<polyline fill="none" stroke="black" points="182.5,-259.5 182.5,-12.5 "/>
<path fill="none" stroke="black" d="M182.5,-12.5C182.5,-6.5 188.5,-0.5 194.5,-0.5"/>
<text text-anchor="start" x="252" y="-258.7" font-family="Arial Bold" font-size="11.00">User</text>
<polyline fill="none" stroke="black" points="182.5,-251.5 345.5,-251.5 "/>
<text text-anchor="start" x="190" y="-237.5" font-family="Arial" font-size="10.00">authentication_token </text>
<text text-anchor="start" x="286" y="-237.5" font-family="Arial Italic" font-size="10.00" fill="#999999">string</text>
<text text-anchor="start" x="190" y="-225" font-family="Arial" font-size="10.00">confirmation_sent_at </text>
<text text-anchor="start" x="286" y="-225" font-family="Arial Italic" font-size="10.00" fill="#999999">datetime</text>
<text text-anchor="start" x="190" y="-213" font-family="Arial" font-size="10.00">confirmation_token </text>
<text text-anchor="start" x="278" y="-213" font-family="Arial Italic" font-size="10.00" fill="#999999">string</text>
<text text-anchor="start" x="190" y="-201" font-family="Arial" font-size="10.00">confirmed_at </text>
<text text-anchor="start" x="251" y="-201" font-family="Arial Italic" font-size="10.00" fill="#999999">datetime</text>
<text text-anchor="start" x="190" y="-189" font-family="Arial" font-size="10.00">current_sign_in_at </text>
<text text-anchor="start" x="276" y="-189" font-family="Arial Italic" font-size="10.00" fill="#999999">datetime</text>
<text text-anchor="start" x="190" y="-177" font-family="Arial" font-size="10.00">current_sign_in_ip </text>
<text text-anchor="start" x="275" y="-177" font-family="Arial Italic" font-size="10.00" fill="#999999">string</text>
<text text-anchor="start" x="190" y="-165" font-family="Arial" font-size="10.00">email </text>
<text text-anchor="start" x="217" y="-165" font-family="Arial Italic" font-size="10.00" fill="#999999">string ∗</text>
<text text-anchor="start" x="190" y="-153" font-family="Arial" font-size="10.00">encrypted_password </text>
<text text-anchor="start" x="286" y="-153" font-family="Arial Italic" font-size="10.00" fill="#999999">string (128) ∗</text>
<text text-anchor="start" x="190" y="-141" font-family="Arial" font-size="10.00">failed_attempts </text>
<text text-anchor="start" x="261" y="-141" font-family="Arial Italic" font-size="10.00" fill="#999999">integer</text>
<text text-anchor="start" x="190" y="-129" font-family="Arial" font-size="10.00">last_sign_in_at </text>
<text text-anchor="start" x="260" y="-129" font-family="Arial Italic" font-size="10.00" fill="#999999">datetime</text>
<text text-anchor="start" x="190" y="-117" font-family="Arial" font-size="10.00">last_sign_in_ip </text>
<text text-anchor="start" x="259" y="-117" font-family="Arial Italic" font-size="10.00" fill="#999999">string</text>
<text text-anchor="start" x="190" y="-105" font-family="Arial" font-size="10.00">locked_at </text>
<text text-anchor="start" x="236" y="-105" font-family="Arial Italic" font-size="10.00" fill="#999999">datetime</text>
<text text-anchor="start" x="190" y="-93" font-family="Arial" font-size="10.00">name </text>
<text text-anchor="start" x="218" y="-93" font-family="Arial Italic" font-size="10.00" fill="#999999">string ∗</text>
<text text-anchor="start" x="190" y="-81" font-family="Arial" font-size="10.00">password_salt </text>
<text text-anchor="start" x="257" y="-81" font-family="Arial Italic" font-size="10.00" fill="#999999">string</text>
<text text-anchor="start" x="190" y="-69" font-family="Arial" font-size="10.00">phone </text>
<text text-anchor="start" x="221" y="-69" font-family="Arial Italic" font-size="10.00" fill="#999999">string</text>
<text text-anchor="start" x="190" y="-57" font-family="Arial" font-size="10.00">remember_created_at </text>
<text text-anchor="start" x="292" y="-57" font-family="Arial Italic" font-size="10.00" fill="#999999">datetime</text>
<text text-anchor="start" x="190" y="-45" font-family="Arial" font-size="10.00">reset_password_token </text>
<text text-anchor="start" x="294" y="-45" font-family="Arial Italic" font-size="10.00" fill="#999999">string</text>
<text text-anchor="start" x="190" y="-33" font-family="Arial" font-size="10.00">sign_in_count </text>
<text text-anchor="start" x="255" y="-33" font-family="Arial Italic" font-size="10.00" fill="#999999">integer</text>
<text text-anchor="start" x="190" y="-21" font-family="Arial" font-size="10.00">unlock_token </text>
<text text-anchor="start" x="252" y="-21" font-family="Arial Italic" font-size="10.00" fill="#999999">string</text>
<text text-anchor="start" x="190" y="-9" font-family="Arial" font-size="10.00">user_type </text>
<text text-anchor="start" x="237" y="-9" font-family="Arial Italic" font-size="10.00" fill="#999999">string</text>
</g>
<!-- m_Account&#45;&gt;m_User -->
<g id="edge2" class="edge"><title>m_Account&#45;&gt;m_User</title>
<path fill="none" stroke="black" d="M145.722,-136C154.729,-136 164.03,-136 173.269,-136"/>
<polygon fill="black" stroke="black" points="173.475,-139.15 182.475,-136 173.475,-132.85 173.475,-139.15"/>
</g>
<!-- m_Track -->
<g id="node3" class="node"><title>m_Track</title>
<polyline fill="none" stroke="black" points="394.5,-295.5 515.5,-295.5 "/>
<path fill="none" stroke="black" d="M515.5,-295.5C521.5,-295.5 527.5,-301.5 527.5,-307.5"/>
<polyline fill="none" stroke="black" points="527.5,-307.5 527.5,-338.5 "/>
<path fill="none" stroke="black" d="M527.5,-338.5C527.5,-344.5 521.5,-350.5 515.5,-350.5"/>
<polyline fill="none" stroke="black" points="515.5,-350.5 394.5,-350.5 "/>
<path fill="none" stroke="black" d="M394.5,-350.5C388.5,-350.5 382.5,-344.5 382.5,-338.5"/>
<polyline fill="none" stroke="black" points="382.5,-338.5 382.5,-307.5 "/>
<path fill="none" stroke="black" d="M382.5,-307.5C382.5,-301.5 388.5,-295.5 394.5,-295.5"/>
<text text-anchor="start" x="441" y="-337.7" font-family="Arial Bold" font-size="11.00">Track</text>
<polyline fill="none" stroke="black" points="382.5,-330.5 527.5,-330.5 "/>
<text text-anchor="start" x="390" y="-316.5" font-family="Arial" font-size="10.00">location </text>
<text text-anchor="start" x="428" y="-316.5" font-family="Arial Italic" font-size="10.00" fill="#999999">string ∗</text>
<text text-anchor="start" x="390" y="-304" font-family="Arial" font-size="10.00">message </text>
<text text-anchor="start" x="434" y="-304" font-family="Arial Italic" font-size="10.00" fill="#999999">string</text>
</g>
<!-- m_Card&#45;&gt;m_Track -->
<g id="edge6" class="edge"><title>m_Card&#45;&gt;m_Track</title>
<path fill="none" stroke="black" d="M336.722,-323C348.622,-323 361.034,-323 373.141,-323"/>
<polygon fill="black" stroke="black" points="373.327,-326.15 382.327,-323 373.327,-319.85 373.327,-326.15"/>
</g>
</g>
</svg>
